inDegrees=no
num_controls=7
num_derivatives=13
num_iterations=175
num_multipliers=7
num_parameters=0
num_slacks=7
num_states=26
objective=0.235903
objective_accelerations=0.000000
objective_balance=0.003256
objective_effort=0.050478
objective_height=0.181459
objective_ligament=0.000710
solver_duration=2272.680628
status=Solve_Succeeded
success=true
DataType=double
version=3
OpenSimVersion=4.5
endheader
time	/jointset/ground_pelvis/pelvis_tilt/value	/jointset/ground_pelvis/pelvis_tx/value	/jointset/ground_pelvis/pelvis_ty/value	/jointset/hip_l/hip_flexion_l/value	/jointset/hip_l/hip_adduction_l/value	/jointset/hip_l/hip_rotation_l/value	/jointset/back/lumbar_extension/value	/jointset/patellofemoral_l/patellar_flexion_l/value	/jointset/knee_l/knee_flexion_l/value	/jointset/knee_l/knee_adduction_l/value	/jointset/knee_l/knee_rotation_l/value	/jointset/ankle_l/ankle_angle_l/value	/jointset/subtalar_l/subtalar_angle_l/value	/jointset/ground_pelvis/pelvis_tilt/speed	/jointset/ground_pelvis/pelvis_tx/speed	/jointset/ground_pelvis/pelvis_ty/speed	/jointset/hip_l/hip_flexion_l/speed	/jointset/hip_l/hip_adduction_l/speed	/jointset/hip_l/hip_rotation_l/speed	/jointset/back/lumbar_extension/speed	/jointset/patellofemoral_l/patellar_flexion_l/speed	/jointset/knee_l/knee_flexion_l/speed	/jointset/knee_l/knee_adduction_l/speed	/jointset/knee_l/knee_rotation_l/speed	/jointset/ankle_l/ankle_angle_l/speed	/jointset/subtalar_l/subtalar_angle_l/speed	/forceset/tau_hip_flexion_l	/forceset/tau_hip_adduction_l	/forceset/tau_hip_rotation_l	/forceset/tau_knee_flexion_l	/forceset/tau_ankle_angle_l	/forceset/tau_subtalar_angle_l	/forceset/tau_lumbar_extension	lambda_cid13_p0	lambda_cid13_p1	lambda_cid13_p2	lambda_cid13_p3	lambda_cid13_p4	lambda_cid13_p5	lambda_cid14_p0	/jointset/ground_pelvis/pelvis_tilt/accel	/jointset/ground_pelvis/pelvis_tx/accel	/jointset/ground_pelvis/pelvis_ty/accel	/jointset/hip_l/hip_flexion_l/accel	/jointset/hip_l/hip_adduction_l/accel	/jointset/hip_l/hip_rotation_l/accel	/jointset/back/lumbar_extension/accel	/jointset/patellofemoral_l/patellar_flexion_l/accel	/jointset/knee_l/knee_flexion_l/accel	/jointset/knee_l/knee_adduction_l/accel	/jointset/knee_l/knee_rotation_l/accel	/jointset/ankle_l/ankle_angle_l/accel	/jointset/subtalar_l/subtalar_angle_l/accel	gamma_cid13_p0	gamma_cid13_p1	gamma_cid13_p2	gamma_cid13_p3	gamma_cid13_p4	gamma_cid13_p5	gamma_cid14_p0
1.5	-0.2001562968556631	-0.002632467434436041	0.3377057016617628	2.181645461081275	-0.4663713256194476	0.2189212962656582	-0.2617800254194896	2.178266742193582	2.178266742193575	0.1744677178381114	-0.1743957038248594	0.4363161669614564	0.1433171073115992	-0.09401445581292195	-0.005208795933369975	0.02351183551652105	0.0006557411556750064	-0.01916569932342563	-0.07048933426451627	-0.0007003116869207603	-0.07884587504139903	-0.07884587504139813	0.001595887439303887	-0.009484586811129635	0.000936625804466199	-0.03067347621516002	-0.07479922934865557	-0.04576305433699682	-0.05871051154087582	-0.4628124643183298	0.1096009306324278	0.01702289539123438	0.1037578131381053	-0.2370483596094726	-1.758105345624536	-6.444672623087493	-12.51816413270073	-559.1656789549479	-59.64617385176168	-0.02020222739086272	-1.080342558981651	0.002484900002380735	0.2664266435091407	0.05302322345921438	-0.5801076820328331	-1.013424940844186	0.03327408232667625	-0.849614529289477	-0.8496145292894646	-0.01916826507955996	-0.7171994477920579	0.05945858296380638	-0.9236755299558084	-6.751989908140478e-08	6.501920576891198e-08	6.868631303404016e-08	3.484987734043345e-08	4.630634643631283e-08	1.96235310435297e-07	-4.717402210196417e-08
1.51	-0.2011575076608667	-0.002688306271978848	0.3379556856054795	2.181652578713303	-0.4665693344122961	0.2181814263427756	-0.2617859557548167	2.1774274239466	2.177427423946616	0.1744800251864775	-0.1744899724878395	0.4363263432073821	0.1430009214226798	-0.1069769379894649	-0.006347211927270759	0.02663500545908753	0.0006436061459690369	-0.01822970921568688	-0.07601924335338921	-0.0004976357487980006	-0.08986017127827849	-0.08986017127827703	0.0006429728240976828	-0.005805360377836194	0.0008432653124950467	-0.02902625713178541	-0.07564117051233489	-0.0428089067068745	-0.05884562591053671	-0.4698566569640339	0.1063635117380623	0.01755793831691329	0.1034623908996907	-1.746359786093487	-1.764926644020099	-6.399355417047377	-7.335639855540549	-563.7922917781415	-62.77269919309865	-0.02039209719672047	-1.516634639631852	-0.2302133609401741	0.3578091702627161	-0.04700585673567143	0.761369903487831	-0.1029148692983783	0.01198229397135864	-1.353672062099478	-1.353672062099368	-0.1667256822294832	1.445113824770872	-0.08207225513942883	1.239476191338345	-1.724405009566742e-07	1.626538386657265e-07	2.037250140180732e-07	1.027342150150303e-07	1.449912367567295e-07	2.777003106211633e-07	-9.737531516044202e-08
1.52	-0.2023108300063639	-0.002767170971831427	0.3382414106487483	2.181655840196517	-0.4666917997948052	0.2174302291337262	-0.2617902157418718	2.176452695759007	2.176452695759047	0.174476128864194	-0.1744405228593124	0.436327918070432	0.142807318837365	-0.1244367638716572	-0.009813968395324425	0.03066005542694646	-0.0001154886057438879	-0.00405701725552394	-0.07275479149784338	-0.000366242034023859	-0.10592786316365	-0.1059278631636468	-0.001644846690641866	0.01925907149069043	-0.0007836507739504782	-0.006156815494240878	-0.07648311167601447	-0.03985475907675232	-0.05898074028019752	-0.4769008496097381	0.1031260928436967	0.01809298124259199	0.1031669686612756	-3.257956983986133	-1.759671723483071	-6.369300819860379	-2.130545643236301	-568.4219951582708	-65.88160601943495	-0.02058597914483523	-1.979811300111491	-0.4631831948282057	0.4468026485676323	-0.09636872494219398	2.067232688452011	0.7454472480395672	0.019017637656979	-1.860293658987903	-1.860293658987654	-0.2861492449862324	3.559841639254581	-0.2472525359310932	3.320768980878163	-3.645463840996305e-07	6.371975862470868e-07	2.077548934692924e-07	2.583282656399578e-07	2.825941330907283e-07	5.292381534715906e-07	-1.624972412163047e-07
1.53	-0.2036734798237871	-0.002898180841566149	0.3385765120426816	2.181648339461909	-0.4666006293312688	0.2167348951685923	-0.2617891831131766	2.175272958114792	2.175272958114789	0.1744520721535019	-0.1740189060871597	0.436293421170458	0.1429478334054479	-0.1501439644086115	-0.01736103444394433	0.03696375356671232	-0.001258907631504293	0.02485969642383335	-0.06694420674066462	0.00108247560801679	-0.132790441437532	-0.1327904414375385	-0.002597865456432621	0.0696096089522011	-0.007721892099950852	0.03724026810329933	-0.08395714819706646	-0.03383896040330862	-0.05994975647796	-0.4982946876427712	0.09050415412107213	0.01836251007386509	0.1074992967211438	-9.193992045474973	-0.6370252390841972	-6.777122833556777	14.46380167441686	-587.9807351758514	-73.1841454133166	-0.02117482921801692	-3.174031442591162	-1.046294583293018	0.8127943978731811	-0.1047064716350974	3.689332775097606	0.4043370351878822	0.2842550032949689	-3.51479891081997	-3.514798910821412	0.0857226901892007	6.454518412110427	-1.158123174558257	5.295966439057957	-6.492866285895034e-07	1.512207268180773e-06	7.258790004189827e-08	5.071138862746106e-07	4.615474108141581e-07	9.614783916531121e-07	-2.434723398318887e-07
1.54	-0.2053547730490005	-0.003133826626469888	0.3389927786182511	2.181633128941012	-0.466143203317455	0.2160787616401565	-0.2617583720729295	2.173741482887993	2.173741482887946	0.1744356054316649	-0.1729574122178896	0.4361413392084987	0.1436116764874794	-0.1881654454297174	-0.0307411514291279	0.04689309175416119	-0.001657445866950284	0.06919409279999142	-0.06491470415825182	0.005589440282751548	-0.1762753796806792	-0.1762753796806897	-0.0001268489196354768	0.1472344909141567	-0.02430066317090106	0.09850888729548005	-0.09143118471811808	-0.0278231617298648	-0.06091877267572256	-0.5196885256758045	0.07788221539844749	0.01863203890513838	0.1118316247810124	-15.14462198745075	0.5422067897011751	-7.255685498547398	31.21501248287764	-607.5491576667216	-80.41396252441076	-0.02178105500903552	-4.442667396941824	-1.629793382140935	1.171930658104237	0.05260743312067341	5.15076922781216	-0.01076918691362792	0.6306670441958351	-5.184765652840951	-5.184765652839537	0.3986578155313463	9.014710539343556	-2.175358484921051	6.895076099806265	-3.164348033997088e-06	-3.72209265775055e-06	1.411443968416212e-06	2.786775005958277e-07	3.010613768983782e-07	-9.921318117713817e-06	-8.185692708012714e-07
1.55	-0.20744077206725	-0.003525153995631118	0.3395302771965847	2.18161864380366	-0.4653142512890788	0.2153099718186864	-0.2616946683634296	2.171690810798667	2.171690810798603	0.1744485222926352	-0.1712442162863462	0.4357445953590805	0.144695154439566	-0.2277129089791419	-0.04779660480483238	0.06156304111976438	-0.0008452598195821229	0.08466781728280136	-0.1007371809170368	0.005240929420526389	-0.2368660001145702	-0.2368660001145717	0.002132093645828595	0.1744893207402098	-0.05958863639667793	0.0937259380447138	-0.1012688519550623	-0.02842711195102329	-0.06331319638941479	-0.5383915143698519	0.06981428431970602	0.0123661857500841	0.1197362031182019	-20.2783567630356	5.730453652235023	-9.873990859169957	45.9869645530182	-631.2666848456007	-75.44440153075742	-0.022357873685595	-3.513176902869591	-1.784450071324757	1.757878266735369	0.1540654309353643	-2.046585772422362	-7.152905760863453	-0.6541659809933701	-6.946734775261012	-6.94673477526062	0.05230639691698063	-3.557486116241327	-4.88938065099756	-7.830977737882872	-8.249127298722763e-06	-1.599537974056943e-05	4.448630955822836e-06	-4.996016314875355e-07	-2.505177769495128e-07	-3.384100479273368e-05	-1.962980486873912e-06
1.56	-0.209882723934779	-0.004095241649757295	0.3402431455067638	2.181623988774862	-0.4646890139820622	0.213825973461528	-0.2616917609284652	2.168944127597682	2.168944127597602	0.1744665873632326	-0.1698861431206377	0.4348581989954862	0.144997603439072	-0.2593560152856403	-0.06649320842211748	0.08196703812324638	0.002308575843405171	0.02845114852810042	-0.2079564112959227	-0.006569814624166804	-0.315477602012375	-0.3154776020123773	0.0009027930058143999	0.07620993774716242	-0.1222311660061171	-0.05769690322064468	-0.1111065191920067	-0.02903106217218171	-0.06570762010310716	-0.5570945030638994	0.06174635324096461	0.006100332595029877	0.1276407814553913	-25.41909053192154	10.8905157471872	-12.45420629983614	61.08486233440485	-655.0123547622434	-70.40033384868465	-0.02295112159640688	-2.861795948356618	-1.958023430457058	2.318740185679995	0.520937356244509	-9.187309419690004	-14.2901199109338	-1.661779592297794	-8.788961945623717	-8.788961945624232	-0.298990825564305	-16.0921320244765	-7.646269761653508	-22.43290230311215	-6.813727626341545e-06	-1.511659978581085e-05	2.946163416733658e-06	-5.50457141656302e-07	-7.021341709340493e-07	-3.355163322261907e-05	-1.168735847399536e-06
1.57	-0.2126503631111112	-0.004856378040509071	0.3411860498293571	2.181652899466805	-0.4648315810916395	0.2110483763408229	-0.2617926899624379	2.165331312672202	2.165331312672245	0.1744640679854998	-0.169858957716099	0.4332816069080893	0.1433822915081842	-0.2978876823212062	-0.08561181653397204	0.1072908369515327	0.002136100354287294	-0.05338543039906216	-0.345772343391412	-0.008215633792550275	-0.4090040452569805	-0.4090040452569607	-0.0009593777067824893	-0.06326198334040735	-0.1905417729355158	-0.2565550914517244	-0.1283946712772923	-0.02984184541667805	-0.0659623259346525	-0.5748165543325354	0.06503570519978312	0.006766532169453107	0.1459356955993855	-26.0064339974858	10.76455715089226	-12.50326384878287	56.83083091396938	-684.9407545533716	-72.83978057146837	-0.0222452698343382	-4.905421347258058	-1.870281080205179	2.74050793966251	-0.4861771990198296	-7.142322814768239	-13.25822502111445	1.394070677347417	-9.923065113012923	-9.923065113009516	-0.06172085373920599	-11.74877838088811	-6.039693740265083	-17.29182398152556	2.771895717423209e-06	2.202263965919381e-06	-4.230872280475217e-06	3.079668755681679e-07	-1.028797115089394e-06	-3.00093884608668e-06	2.048828611508587e-06
1.58	-0.2159146328110193	-0.005805000828110488	0.3424024537818851	2.181640117964343	-0.4656846121275963	0.2069464408667114	-0.2617480664367907	2.160725517394449	2.160725517394616	0.1744565487687142	-0.1710013027684342	0.4310986612350619	0.1400424883153016	-0.3586821200008324	-0.1039904877920459	0.1366669641102004	-0.006029863036026253	-0.1136416367477793	-0.4728240819772205	0.02254069729730738	-0.514073672466945	-0.5140736724669095	-9.717480465239855e-05	-0.1576961536276139	-0.2435018831321961	-0.4025951556195919	-0.1456828233625785	-0.03065262866117443	-0.0662170317661981	-0.5925386056011714	0.06832505715860168	0.007432731743876314	0.1642306097433793	-26.57826704644	10.54110991175001	-12.42853290459972	52.95851662267413	-715.04484998329	-75.10356071983601	-0.02159507820362559	-7.314350077168704	-1.810036059700909	3.129205851756256	-1.077760223994618	-4.871234904000919	-12.13728120899764	4.818650459350414	-11.09759873869554	-11.09759873869731	0.2458838973810913	-7.084581864403856	-4.576170415109827	-11.86927749046969	6.31578611497052e-06	1.013293509820864e-05	-3.866121802831107e-06	1.32463030989816e-06	-6.019963102423351e-08	1.214383725475856e-05	2.983389560422035e-06
1.59	-0.2199572091268685	-0.006928077852637319	0.3439289359356551	2.181534310108308	-0.4669675825182038	0.2016968471018226	-0.2611463386541418	2.155017233815678	2.155017233815756	0.174466981999037	-0.1727493669620805	0.4284971836241969	0.1356468981436804	-0.4598676942205093	-0.119939624495922	0.1688346068823703	-0.01249205405084257	-0.133508157713594	-0.568585095765351	0.1125355439600658	-0.6290019290441619	-0.6290019290441756	0.001788381018620604	-0.1747534191828489	-0.2712325193221565	-0.4557160202592704	-0.17066818533376	-0.03500644521886681	-0.0653842416068105	-0.6089325212851959	0.08170832446439326	0.01076135341795056	0.1942027047278836	-23.62854145800476	7.950407271232362	-11.29750385334937	33.5476563870501	-753.6679288794212	-78.07000970331708	-0.02026262079140063	-13.02603541130253	-1.383900598722573	3.292172746907422	-0.03465926093248487	0.8701801195364722	-7.017805118733966	13.2995044788677	-11.90317799089204	-11.9031779908983	0.1006265810342371	3.560901420434007	-1.037319660209781	1.085599641718438	1.66018179979461e-06	5.322487675542994e-06	6.733909912112914e-06	2.55604723887135e-06	2.666251291340089e-06	6.380581410029513e-06	8.195886029143103e-07
